<svg xmlns="http://www.w3.org/2000/svg" width="96" height="64" viewBox="0 0 96 64">
    <path fill="#FFF" fill-rule="evenodd" d="M80 32c8.837 0 16 7.163 16 16s-7.163 16-16 16-16-7.163-16-16 7.163-16 16-16zm0 8c-2.206 0-4 1.794-4 4v2h-1c-.552 0-1 .456-1 .995v8.01c0 .55.456.995 1.002.995h9.996c.553 0 1.002-.456 1.002-.995v-8.01A.995.995 0 0 0 85 46h-1v-2c0-2.206-1.795-4-4-4zm0 8.5c.826 0 1.5.672 1.5 1.5 0 .552-.305 1.032-.75 1.29v2.46a.751.751 0 0 1-1.5 0v-2.46A1.49 1.49 0 0 1 78.5 50a1.5 1.5 0 0 1 1.5-1.5zM47.755 0c4.455 0 8.665 1.689 11.85 4.762 2.779 2.679 4.507 6.147 4.97 9.9 8.201.724 14.74 7.229 15.374 15.339L80 30c-9.941 0-18 8.059-18 18H32.946C23.6 48 16 40.507 16 31.297c0-4.393 1.716-8.542 4.833-11.681a16.942 16.942 0 0 1 10.096-4.903c.452-3.772 2.185-7.26 4.975-9.95C39.09 1.689 43.298 0 47.754 0zM80 42c1.103 0 2 1.121 2 2.5V46h-4v-1.5c0-1.379.897-2.5 2-2.5zM55.386 28a1.132 1.132 0 0 0-1.113 1.154c.011.203.02.3.056.51.04.227.096.46.172.692-3.7 3.16-9.297 3.168-13.007.023.165-.49.233-.942.233-1.234a1.13 1.13 0 0 0-1.104-1.143 1.136 1.136 0 0 0-1.157 1.1c0 .11-.04.36-.135.618-.153.419-.41.771-.802 1.017a1.136 1.136 0 0 0-.333 1.597 1.127 1.127 0 0 0 1.538.323c.18-.114.348-.239.505-.375C42.426 34.054 45.163 35 47.986 35c2.83 0 5.573-.95 7.764-2.73.16.141.332.27.517.387a1.134 1.134 0 0 0 1.307-1.848l-.101-.073-.077-.048a1.9 1.9 0 0 1-.546-.589 2.312 2.312 0 0 1-.316-1.003A1.128 1.128 0 0 0 55.386 28z"/>
</svg>
